<?xml version="1.0" encoding="UTF-8"?>
<!DOCTYPE svg PUBLIC "-//W3C//DTD SVG 1.1//EN" "http://www.w3.org/Graphics/SVG/1.1/DTD/svg11.dtd">
<!-- Creator: CorelDRAW X7 -->
<svg xmlns="http://www.w3.org/2000/svg" xml:space="preserve" width="24px" height="24px" version="1.1" style="shape-rendering:geometricPrecision; text-rendering:geometricPrecision; image-rendering:optimizeQuality; fill-rule:evenodd; clip-rule:evenodd"
viewBox="0 0 2400000 2400000"
 xmlns:xlink="http://www.w3.org/1999/xlink">
 <defs>
  <style type="text/css">
   <![CDATA[
    .fil0 {fill:#95A8B1}
   ]]>
  </style>
 </defs>
 <g id="Layer_x0020_1">
  <metadata id="CorelCorpID_0Corel-Layer"/>
  <path class="fil0" d="M1200000 258096c-74417,-472 -98986,2835 -133005,18782 -125918,58942 -431263,299202 -581514,466581 -123556,137730 -174821,153204 -177774,435515 0,359091 0,395827 0,754799 11813,273334 592972,281721 609391,0 0,-166788 0,-249355 0,-416143 -9095,-164190 131942,-258687 282902,-258451 150960,-236 291997,94261 282902,258451 0,166788 0,249355 0,416143 16419,281721 597578,273334 609391,0 0,-358972 0,-395708 0,-754799 -2953,-282311 -54218,-297785 -177774,-435515 -150251,-167379 -455596,-407639 -581514,-466581 -34019,-15947 -58588,-19254 -133005,-18782z"/>
 </g>
</svg>
