<?xml version="1.0" encoding="UTF-8"?>
<!DOCTYPE svg PUBLIC "-//W3C//DTD SVG 1.1//EN" "http://www.w3.org/Graphics/SVG/1.1/DTD/svg11.dtd">
<!-- Creator: CorelDRAW X7 -->
<svg xmlns="http://www.w3.org/2000/svg" xml:space="preserve" width="24px" height="24px" version="1.1" style="shape-rendering:geometricPrecision; text-rendering:geometricPrecision; image-rendering:optimizeQuality; fill-rule:evenodd; clip-rule:evenodd"
viewBox="0 0 2400000 2400000"
 xmlns:xlink="http://www.w3.org/1999/xlink">
 <defs>
  <style type="text/css">
   <![CDATA[
    .fil0 {fill:#95A8B1}
   ]]>
  </style>
 </defs>
 <g id="Layer_x0020_1">
  <metadata id="CorelCorpID_0Corel-Layer"/>
  <g id="_395009880">
   <path class="fil0" d="M118594 1112944l689714 0c9450,0 9804,-7914 12048,-14056l3426 -9568c12875,-35201 42878,-84339 69337,-110208l103003 -84339 86465 -35909c3307,-945 5079,-1536 7914,-2599 8387,-3071 354,-945 7560,-2716 13820,-3544 24805,-1536 36618,-5080 36617,-10631 60242,-3543 92725,-3661l112925 27522c709,236 1417,472 2008,591 19372,6614 38035,16300 55399,27994 472,237 1063,709 1536,1064 472,236 1063,708 1535,945l3189 2126c2717,1772 2954,1890 6261,4134 2953,2008 2599,1772 6142,4252l29294 20199c0,0 5198,4961 5316,5079l25987 26105c1890,1890 3071,3072 5197,5198l14883 13702c13821,14411 40871,57880 49494,75362 2953,5906 3779,8504 6614,14292l9450 21735c2599,7205 3308,17836 13466,17836l705306 0c0,-13702 -827,-47839 -3426,-59061l-6969 -39925c-1418,-14529 -1063,-5788 -3662,-14529l-7796 -38980c-6733,-19845 -10985,-49021 -20553,-75834l-38035 -105129c-16183,-42642 -40752,-87528 -63196,-126745l-37680 -58706c-3308,-4371 -827,-1063 -3190,-4607l-2008 -3189c-354,-355 -709,-1063 -1063,-1536l-27168 -37917c-3307,-4961 -3307,-4489 -7087,-8505l-27404 -35082c-17128,-20553 -84103,-90245 -107728,-110916 -354,-355 -945,-827 -1417,-1063l-3071 -2245c-4253,-2953 -3898,-2008 -8859,-6733 -15356,-14529 -21262,-16419 -27287,-22088 -2716,-2717 -5079,-5907 -7677,-8033 -3662,-3071 -4017,-2126 -9096,-6378 -3425,-2953 -4370,-4961 -8032,-7678l-57171 -39099c-3662,-2598 -709,-708 -4489,-3307l-3189 -2126c-473,-236 -1063,-591 -1536,-945 -354,-236 -2953,-1654 -4961,-2953 -14529,-8977 -27522,-19608 -43232,-26932l-31657 -17836c-22207,-10986 -44059,-25869 -67566,-33193 -354,-118 -1063,-354 -1535,-472 -355,-118 -1063,-236 -1418,-354l-207894 -67566c-13230,-2244 -12994,-4253 -24688,-6497 -8268,-1535 -19608,-1417 -27876,-3425 -32248,-7560 -49139,-5788 -57290,-7678l-188404 -7088 -56698 5670c-15238,5079 -41461,2717 -57290,7796 -6496,2126 5316,-236 -6024,1772l-123673 27286c-6379,2008 -3426,1772 -11340,4371 -5316,1653 -6260,1299 -12167,3425l-59769 20908c-5316,1890 -6851,1890 -11576,4016l-126981 60478c-1890,1300 -1063,827 -4725,3072l-58470 35200c-473,354 -1063,709 -1536,945 -472,354 -1181,709 -1654,1063 -472,354 -1063,709 -1535,1063 -3780,2599 -827,709 -4489,3307l-34255 23034c-3190,2245 -5434,4371 -8623,6969 -12049,9568 -25633,16656 -36618,28350 -9804,10394 -8859,5551 -18191,13111 -6614,5434 -10040,11340 -17245,16537 -2835,2008 -2835,1654 -4725,3071l-28704 28586c-18899,18899 -48194,44768 -63195,64376l-25042 29531c-8623,12993 -20789,23034 -29294,35909l-16774 22207c-2362,3661 -3779,5551 -6260,9331l-32602 48076c-5197,7323 -6260,11694 -11457,19844l-13112 20672c-11576,17600 -17246,36263 -26459,54336l-19727 42642c-2953,6969 -2835,5079 -5315,10276 -12167,25869 -20081,55281 -30357,81623l-32484 110562c-2362,9449 -2008,20080 -4489,29412l-4961 26223c-472,3426 -945,7914 -1771,13820 -3544,27641 -7915,18309 -7915,75480z"/>
   <g>
    <path class="fil0" d="M128989 1386160c0,13348 4252,16655 6024,30357 355,2599 1063,9214 1890,13821 2245,13111 355,2716 3544,12048l18663 69810c8151,25278 18900,64849 30830,88946 1890,3662 4016,7323 5315,10276 1772,4371 2363,8269 3780,11813 6733,17836 42997,96505 54100,112452 2481,3543 4253,5669 6379,9331l51855 80914c2363,3425 3308,4961 6261,9331 14765,21853 39689,49021 46894,59770 10395,15474 38153,41933 51383,55281 10631,10631 19372,19254 30003,29885l54572 52092c7206,5788 3308,1890 9804,5906l152378 105246c30475,17010 72526,40752 98041,49139l73590 29176c30239,9568 62959,24215 92962,29294 3189,473 7678,1063 12875,2717 7914,2481 2480,1890 11812,3898 9332,1890 14883,1536 24215,4371 8977,2598 16655,4725 25514,5670 23034,2716 41343,7796 64377,8504 16419,355 11340,5080 41697,5198l236716 -5198c5906,-236 19018,-1653 25514,-2953l26105 -5197c17837,-1772 31893,-6969 49848,-10040l92607 -27169c22443,-8386 46540,-13702 67330,-23742l138557 -67093c945,-355 4488,-2008 5315,-2363l41225 -26459c2362,-1536 2598,-1536 4843,-2953 2835,-2008 3189,-2362 4488,-3307l2953 -2245c473,-354 1182,-708 1536,-1063l31302 -20789c3190,-2363 5434,-4489 8623,-6969 6261,-4962 3071,-2481 9450,-6261l42288 -33074c3661,-2362 5079,-4134 8268,-7442 2953,-2953 4725,-5197 7678,-7914l98750 -96505c18663,-23389 40988,-44887 57525,-69929 2008,-3071 591,-1417 3189,-4606l25042 -34846c2953,-4489 3190,-4253 6615,-8978 19136,-25750 44768,-67920 57407,-96151 13702,-30357 31657,-61069 42524,-92844 4134,-12402 10159,-19253 13939,-32837 708,-2717 2008,-7324 2953,-10041l32838 -102648c6378,-18781 9095,-47012 13465,-64494 2599,-10277 4371,-4253 4371,-19136 0,-12521 -24569,-7796 -36500,-7796l-668806 0c-590,6851 -945,3898 -1653,6379 -8269,28821 -32248,72999 -52447,95678 -17600,19727 -4724,10041 -37680,42997 -7560,7559 -13230,13466 -20672,20907l-59061 42524c-23978,14529 -49375,25514 -76188,32838l-18545 6379c-355,118 -1063,236 -1418,354l-4488 1181c-355,118 -1064,355 -1536,473 -6024,1890 1772,118 -7914,2244l-23270 3544c-7442,236 -2008,-709 -8387,1063 -8387,2244 -1654,3425 -17128,3898 -16773,354 -25514,2126 -39216,2598l-108318 -14647c-236,-118 -1063,-236 -1417,-354l-31421 -10395c-5788,-1890 -10867,-2598 -16182,-4843 -9332,-3780 -19490,-9922 -27759,-13938 -6497,-3071 -7087,-3544 -13938,-6851 -8978,-4489 -5080,-1890 -12994,-7914 -5670,-4253 -7205,-5434 -12284,-8505 -4607,-2599 -1772,-709 -6615,-3780 -26696,-17364 -47603,-39925 -70401,-62368 -3307,-3308 -7560,-6970 -10158,-10513l-16537 -22562c0,0 -4135,-5669 -4371,-6024l-33783 -59888c-3425,-6851 -3543,-7677 -6142,-14765l-1418 -3780c-2244,-6024 -2716,-1063 -3661,-11930l-653214 0c-11931,0 -36500,-4725 -36500,7796zm124501 92253l2126 8033 -118 0 4961 15946c5906,19372 13229,42760 19017,54572l4489 8741 6260 15238 2127 6615 0 118 118 0c3425,8977 15356,35791 26695,59179l0 354c7442,15592 14293,29058 16065,31775l354 473 6379 9331 1535 2245 51856 80913 -118 118 5079 7442 118 -118c7560,11221 16892,22443 24451,31538l473 355c8268,10040 15119,17954 21734,27995l236 -119c2363,3544 19609,20790 31303,32484l-236 236 7441 7324 473 354 30003 29885 45949 43941 4725 2717 147770 102057 709 237c26578,14883 61660,34491 76071,39216l5906 2362 72290 28704 27405 9450 1535 354c16065,5906 32602,11694 44178,13820 6142,945 14529,2127 27404,6143l5788 2008 1181 236 0 118c7324,945 14647,1890 24688,4725l7205 1890 9804 1772 22325 3425 1181 355c9332,1535 18900,3189 25397,3543l1299 0c19372,355 27050,2835 35791,5198l827 236 0 -236 234944 -5198 2953 -236 0 -118 8977 -1299 24334 -4843 8977 -1181c4016,-355 10158,-1890 16064,-3308l2363 -709 17127 -3661 88946 -26105 0 118 23152 -7678 2008 -709c10159,-3071 20317,-6378 26932,-9568l138557 -67093 472 -236 35437 -22680 2008 -1181 2244 -1654 118 237 1654 -1300 3544 -2716 1535 -1064 1536 -1181 28704 -19135 3898 -3072 354 0 591 -472 826 -827 3780 -2953 9332 -6142 34846 -27287 591 -708 1417 -1418 236 237 6733 -6970 1890 -1890 94970 -92843 20317 -23625 354 -708c10159,-11458 20436,-23034 26932,-32956l1181 -1536 3190 -4607 1181 -1535 25042 -34846 354 -827 6615 -8977 473 -355c7677,-10395 17363,-25160 26459,-40398 8150,-13702 15592,-27168 19962,-36972l119 0c5551,-12521 11457,-24333 17245,-35791l0 -354c7796,-15710 15947,-32011 21617,-48548l354 118c3780,-11340 7796,-19254 11576,-26814l354 -826 118 118 355 -1063 2953 -10041 827 -2362 20317 -63550 -513358 0 -2717 4961 -118 -118c-12639,23152 -28349,46422 -43469,63314l236 236 -3898 4370c-6378,9450 -12757,18073 -37680,42997l-237 -237 -20080 20317 -12876 10986 -59061 42524 -6614 4252c-17010,10277 -33665,19136 -49612,25869 -13938,5906 -29294,11457 -45831,16182l118 237 -18545 6378 -8268 2363 -1418 354 0 -118 -3307 827 -237 -945 -8741 1772 473 1890 -827 236 -2480 590 -8151 1536 -16064 2481m-174821 450871l1536 354 -1536 -709 0 355zm1013013 -627227l-118 945 236 -827 -118 -118zm-879535 183207l-21735 1417 -16655 1181 -20317 -827 -108317 -14647 -10986 -1890 -1417 -354 -7088 -2008 -31420 -10395 -2362 -709 -2717 -826 -9450 -2953 -7442 -2717c-10749,-4253 -20080,-9214 -28231,-13584l118 -118 -6378 -3308 -12757 -6260 0 118 -4725 -2244 -5434 -2717 -2362 -1300 -9332 -5906 -3189 -2244 -3071 -2481 -5670 -3779 -5079 -2954 -4725 -3189c-32484,-21144 -54336,-42878 -76307,-64849l236 -236 -9922 -9804 -827 -354 -2835 -2835 118 -118c-5670,-5316 -11812,-11695 -17600,-19727l-16183 -22089 -354 -472 -4370 -6024 -5907 -9686 -22088 -39217 -501309 0m988089 259986l0 119"/>
   </g>
   <path class="fil0" d="M964465 1237799c0,22207 -2362,50556 4843,70755l10631 30948c1654,4961 1181,4843 3189,9804 2126,4961 2363,4134 5316,10277 16537,33074 43469,61895 74180,81976l20199 13702c35555,19254 49493,16892 71936,24333l38744 2835c12285,0 26460,945 36500,-2480l12521 -3071c4607,-827 6142,-709 10867,-2245l30830 -10749c6260,-2717 11103,-5315 17364,-8623 27758,-15001 56462,-37326 74417,-63549 2598,-4016 2126,-4253 4606,-8387l32011 -66975c13702,-42288 10277,-100640 -5315,-141392 -236,-827 -1181,-2953 -1536,-3662 -945,-2598 -945,-3189 -1890,-5906 -1181,-3307 -1653,-5079 -3780,-9213l-22443 -37445c-354,-472 -708,-1181 -1063,-1535l-71700 -63668c-30003,-18781 -54100,-19726 -73472,-25396 -8977,-2599 1182,-3780 -9331,-3780l-59770 0 -58588 17009c-15356,5906 -27405,15474 -41107,23861 -708,472 -2717,1536 -3307,2008l-18545 15238c-12876,9686 -27523,26813 -33074,34728l-23389 38980c-12402,24451 -19844,53509 -19844,81622z"/>
  </g>
 </g>
</svg>
