<?xml version="1.0" encoding="UTF-8"?>
<!DOCTYPE svg PUBLIC "-//W3C//DTD SVG 1.1//EN" "http://www.w3.org/Graphics/SVG/1.1/DTD/svg11.dtd">
<!-- Creator: CorelDRAW X7 -->
<svg xmlns="http://www.w3.org/2000/svg" xml:space="preserve" width="24px" height="24px" version="1.1" style="shape-rendering:geometricPrecision; text-rendering:geometricPrecision; image-rendering:optimizeQuality; fill-rule:evenodd; clip-rule:evenodd"
viewBox="0 0 2400000 2400000"
 xmlns:xlink="http://www.w3.org/1999/xlink">
 <defs>
  <style type="text/css">
   <![CDATA[
    .fil0 {fill:#95A8B1}
   ]]>
  </style>
 </defs>
 <g id="Layer_x0020_1">
  <metadata id="CorelCorpID_0Corel-Layer"/>
  <path class="fil0" d="M207068 383896l-118 0 354 -22443 -236 22443zm76424 375509c8151,19136 22326,29177 39453,44887 89655,82331 167379,167497 283375,233290 17482,10041 44177,17719 59415,27287 -15829,33782 -40516,47485 -53273,120484 -9214,53273 -2953,115641 -355,170213 4607,102294 -72881,250773 -45358,300030 945,34610 236,47603 11694,78197 10158,27404 24215,38271 35082,59887 -10631,12049 85166,95915 101112,108200 129816,101112 316094,175293 493986,180490 214864,6143 458549,-91544 579978,-263766 5670,-7914 20081,-23152 15120,-31656 7678,-19727 20671,-32248 28585,-55045 9923,-28704 8269,-43233 9096,-75480l6496 -18309c3662,-34373 -19372,-99459 -27049,-130288 -17955,-71110 -13703,-85048 -15593,-160646 -1535,-56344 -6851,-110444 -18427,-161237 -5315,-22679 -12639,-46421 -20435,-66620 -8623,-22680 -24333,-45005 -29412,-63786 50674,-17482 145290,-80205 190767,-109617l153086 -111507c8032,-7206 2362,-945 7678,-8741 708,-945 1063,-1890 1771,-2835 591,-827 1182,-2008 1772,-3071 827,-1063 1536,-2245 2126,-3426l4489 -7205c4725,9450 -3307,13938 22207,-8387 97687,-85520 270381,-266247 277114,-390983 -86583,-2835 -160410,6615 -229747,33664 -25160,-1535 -156393,65440 -179191,77725 -121665,65439 -211202,145053 -310779,231873 -21852,18899 -121074,117177 -133950,139502 -45240,-6733 -109026,-79851 -374919,-75008 -91426,1536 -199626,22089 -281956,56345 -29531,12166 -50202,28467 -74063,39216 -73117,-158992 -276759,-351413 -418269,-450044 -42642,-29649 -133006,-85757 -187814,-101585 -65794,-19845 -121311,-51856 -204705,-42051 -14057,149778 265420,434924 280893,440003z"/>
 </g>
</svg>
